<svg xmlns="http://www.w3.org/2000/svg" viewBox="0 0 1200 720" role="img" aria-labelledby="title desc">
  <title id="title">Hubungan karbon monoksida dan nitrogen dioksida di DKI Jakarta, 2021</title>
  <desc id="desc">Scatter plot CO dan NO₂ dengan garis regresi linear yang menunjukkan tren positif.</desc>
  <rect width="1200" height="720" rx="32" fill="#f8fafc"/>
  <rect x="34" y="34" width="1132" height="652" rx="24" fill="#ffffff" stroke="#e2e8f0" stroke-width="2"/>
  <g font-family="Inter, Arial, sans-serif">
    <text x="82" y="98" fill="#0f172a" font-size="28" font-weight="700">CO vs NO₂</text>
    <text x="82" y="130" fill="#64748b" font-size="18">DKI Jakarta Air Quality • 2021</text>
    <g transform="translate(906 78)">
      <rect width="210" height="54" rx="27" fill="#eff6ff"/>
      <circle cx="28" cy="27" r="7" fill="#2563eb"/>
      <text x="48" y="33" fill="#1d4ed8" font-size="16" font-weight="600">Linear regression</text>
    </g>
    <rect x="126" y="178" width="948" height="408" rx="16" fill="#f8fafc"/>
    <g stroke="#dbe4ef" stroke-width="2">
      <path d="M126 586H1074M126 504H1074M126 422H1074M126 340H1074M126 258H1074M126 178H1074"/>
      <path d="M126 178V586M245 178V586M364 178V586M483 178V586M602 178V586M721 178V586M840 178V586M959 178V586M1074 178V586" stroke-dasharray="4 10"/>
    </g>
    <g fill="#64748b" font-size="16" text-anchor="end"><text x="108" y="592">0</text><text x="108" y="510">20</text><text x="108" y="428">40</text><text x="108" y="346">60</text><text x="108" y="264">80</text><text x="108" y="184">100</text></g>
    <g fill="#64748b" font-size="16" text-anchor="middle"><text x="126" y="620">5</text><text x="245" y="620">10</text><text x="364" y="620">15</text><text x="483" y="620">20</text><text x="602" y="620">25</text><text x="721" y="620">30</text><text x="840" y="620">35</text><text x="959" y="620">40</text><text x="1074" y="620">45</text></g>
    <text x="600" y="666" fill="#475569" font-size="18" text-anchor="middle" font-weight="600">CO (Karbon Monoksida)</text>
    <text x="63" y="382" transform="rotate(-90 63 382)" fill="#475569" font-size="18" text-anchor="middle" font-weight="600">NO₂ (Nitrogen Dioksida)</text>
    <path d="M126 558 L1074 364" fill="none" stroke="#2563eb" stroke-width="6" stroke-linecap="round"/>
    <g fill="#ef4444" stroke="#ffffff" stroke-width="3" opacity=".96">
      <circle cx="147" cy="548" r="7"/><circle cx="155" cy="532" r="7"/><circle cx="164" cy="541" r="7"/><circle cx="174" cy="516" r="7"/><circle cx="183" cy="525" r="7"/><circle cx="191" cy="500" r="7"/><circle cx="201" cy="512" r="7"/><circle cx="210" cy="488" r="7"/><circle cx="219" cy="505" r="7"/><circle cx="228" cy="480" r="7"/>
      <circle cx="237" cy="495" r="7"/><circle cx="246" cy="468" r="7"/><circle cx="256" cy="487" r="7"/><circle cx="266" cy="458" r="7"/><circle cx="275" cy="474" r="7"/><circle cx="284" cy="448" r="7"/><circle cx="294" cy="463" r="7"/><circle cx="304" cy="439" r="7"/><circle cx="313" cy="454" r="7"/><circle cx="323" cy="429" r="7"/>
      <circle cx="333" cy="445" r="7"/><circle cx="342" cy="414" r="7"/><circle cx="352" cy="432" r="7"/><circle cx="362" cy="403" r="7"/><circle cx="372" cy="422" r="7"/><circle cx="382" cy="389" r="7"/><circle cx="392" cy="408" r="7"/><circle cx="402" cy="379" r="7"/><circle cx="413" cy="397" r="7"/><circle cx="423" cy="367" r="7"/>
      <circle cx="434" cy="388" r="7"/><circle cx="445" cy="354" r="7"/><circle cx="456" cy="372" r="7"/><circle cx="468" cy="340" r="7"/><circle cx="479" cy="361" r="7"/><circle cx="490" cy="327" r="7"/><circle cx="502" cy="350" r="7"/><circle cx="514" cy="316" r="7"/><circle cx="525" cy="338" r="7"/><circle cx="537" cy="302" r="7"/>
      <circle cx="548" cy="328" r="7"/><circle cx="560" cy="289" r="7"/><circle cx="572" cy="314" r="7"/><circle cx="585" cy="276" r="7"/><circle cx="598" cy="304" r="7"/><circle cx="611" cy="264" r="7"/><circle cx="625" cy="294" r="7"/><circle cx="639" cy="250" r="7"/><circle cx="653" cy="283" r="7"/><circle cx="668" cy="237" r="7"/>
      <circle cx="682" cy="271" r="7"/><circle cx="697" cy="225" r="7"/><circle cx="713" cy="259" r="7"/><circle cx="729" cy="212" r="7"/><circle cx="746" cy="247" r="7"/><circle cx="763" cy="199" r="7"/><circle cx="780" cy="233" r="7"/><circle cx="799" cy="187" r="7"/><circle cx="818" cy="220" r="7"/>
      <circle cx="475" cy="248" r="7"/><circle cx="507" cy="228" r="7"/><circle cx="535" cy="205" r="7"/><circle cx="560" cy="190" r="7"/><circle cx="593" cy="179" r="7"/><circle cx="625" cy="162" r="7"/><circle cx="652" cy="145" r="7"/><circle cx="689" cy="135" r="7"/><circle cx="725" cy="115" r="7"/><circle cx="758" cy="129" r="7"/>
      <circle cx="790" cy="104" r="7"/><circle cx="832" cy="158" r="7"/><circle cx="873" cy="113" r="7"/><circle cx="920" cy="132" r="7"/><circle cx="966" cy="88" r="7"/><circle cx="1008" cy="105" r="7"/>
    </g>
    <g transform="translate(145 197)"><rect width="154" height="40" rx="20" fill="#ffffff" stroke="#e2e8f0"/><circle cx="23" cy="20" r="6" fill="#ef4444"/><text x="40" y="26" fill="#475569" font-size="14" font-weight="600">Observasi ISPU</text></g>
  </g>
</svg>
