<svg xmlns="http://www.w3.org/2000/svg" width="1200" height="720" viewBox="0 0 1200 720" role="img" aria-labelledby="title desc"><title id="title">Galat estimasi terhadap ukuran sampel</title><desc id="desc">Ilustrasi bahwa galat estimasi mengecil ketika ukuran sampel meningkat.</desc><rect width="1200" height="720" fill="#0b1730"/><text x="75" y="86" fill="#7dd3fc" font-family="Arial,sans-serif" font-size="19" font-weight="700" letter-spacing="4">ESTIMATION ERROR</text><text x="75" y="137" fill="#f8fafc" font-family="Arial,sans-serif" font-size="37" font-weight="700">Galat estimasi dan ukuran sampel</text><rect x="75" y="184" width="1050" height="438" rx="20" fill="#102646" stroke="#31557d"/><g stroke="#31557d" stroke-width="1"><path d="M155 280H1060M155 370H1060M155 460H1060M155 550H1060"/><path d="M155 240V550H1060"/></g><g fill="#91a9c5" font-family="Arial,sans-serif" font-size="15"><text x="104" y="286">3%</text><text x="104" y="376">2%</text><text x="104" y="466">1%</text><text x="101" y="556">0%</text><text x="160" y="580">5</text><text x="379" y="580">30</text><text x="602" y="580">55</text><text x="825" y="580">80</text><text x="1030" y="580">95</text></g><path d="M160 262 C255 333 300 369 390 423 S540 473 620 500 S770 522 865 536 S970 544 1055 548" fill="none" stroke="#22c55e" stroke-width="5"/><path d="M160 291 C235 350 330 394 410 439 S575 489 650 509 S816 531 900 540 S990 546 1055 549" fill="none" stroke="#3b82f6" stroke-width="5"/><path d="M160 242 C230 320 335 389 420 435 S555 488 650 510 S820 530 910 541 S990 547 1055 549" fill="none" stroke="#ef4444" stroke-width="5"/><line x1="1008" y1="240" x2="1008" y2="550" stroke="#fbbf24" stroke-width="2" stroke-dasharray="7 7"/><circle cx="1008" cy="549" r="7" fill="#fbbf24"/><text x="882" y="223" fill="#fcd34d" font-family="Arial,sans-serif" font-size="16" font-weight="700">90% sample</text><text x="829" y="650" fill="#dbeafe" font-family="Arial,sans-serif" font-size="18" font-weight="700">Total error: 0.069%</text></svg>
