<svg xmlns="http://www.w3.org/2000/svg" viewBox="0 0 1600 900" role="img" aria-labelledby="title desc"><title id="title">Fanuc machine monitoring dashboard</title><desc id="desc">High-resolution dark dashboard mockup for Fanuc machine monitoring.</desc><defs><linearGradient id="bg" x2="1" y2="1"><stop stop-color="#071426"/><stop offset="1" stop-color="#162b4b"/></linearGradient></defs><rect width="1600" height="900" fill="url(#bg)"/><rect x="32" y="28" width="1536" height="844" rx="28" fill="#0b1930" stroke="#284260" stroke-width="2"/><rect x="32" y="28" width="1536" height="82" rx="28" fill="#122744"/><text x="78" y="79" font-family="Arial" font-size="28" font-weight="700" fill="#f8fafc">FANUC MACHINE · PERFORMANCE CENTER</text><circle cx="1484" cy="69" r="12" fill="#22c55e"/><g fill="#102441" stroke="#294869" stroke-width="2"><rect x="76" y="148" width="344" height="154" rx="18"/><rect x="444" y="148" width="344" height="154" rx="18"/><rect x="812" y="148" width="344" height="154" rx="18"/><rect x="1180" y="148" width="344" height="154" rx="18"/><rect x="76" y="334" width="930" height="310" rx="18"/><rect x="1036" y="334" width="488" height="310" rx="18"/><rect x="76" y="676" width="1448" height="146" rx="18"/></g><g font-family="Arial" fill="#8eaccf" font-size="17" font-weight="700"><text x="104" y="188">TOTAL POWER TIME</text><text x="472" y="188">WORKING TIME</text><text x="840" y="188">EFFICIENCY</text><text x="1208" y="188">DAYS OPERATED</text></g><g font-family="Arial" fill="#f8fafc" font-size="44" font-weight="700"><text x="104" y="254">1712 h</text><text x="472" y="254">99 h</text><text x="840" y="254">94.5%</text><text x="1208" y="254">29 days</text></g><text x="108" y="380" font-family="Arial" font-size="24" font-weight="700" fill="#f8fafc">Operational Trend</text><g stroke="#294869" stroke-width="2"><path d="M112 592H970M112 522H970M112 452H970M112 382H970"/></g><path d="M122 572 L210 550 L290 442 L370 504 L450 468 L530 535 L610 420 L690 454 L770 394 L850 485 L940 430" fill="none" stroke="#38bdf8" stroke-width="10" stroke-linecap="round" stroke-linejoin="round"/><text x="1068" y="380" font-family="Arial" font-size="24" font-weight="700" fill="#f8fafc">Machine State</text><g><circle cx="1280" cy="500" r="100" fill="none" stroke="#1e3a5f" stroke-width="36"/><path d="M1280 400 A100 100 0 1 1 1195 550" fill="none" stroke="#22c55e" stroke-width="36" stroke-linecap="round"/><text x="1233" y="510" font-family="Arial" font-size="25" fill="white">RUNNING</text></g><text x="108" y="722" font-family="Arial" font-size="24" font-weight="700" fill="#f8fafc">Machine utilisation by time of day</text><g fill="#2563eb"><rect x="112" y="766" width="190" height="26" rx="13"/><rect x="342" y="744" width="190" height="48" rx="13"/><rect x="572" y="724" width="190" height="68" rx="13"/><rect x="802" y="754" width="190" height="38" rx="13"/></g><g fill="#22c55e"><rect x="1040" y="766" width="190" height="26" rx="13"/><rect x="1270" y="734" width="190" height="58" rx="13"/></g></svg>
